ffmpeg started on 2025-06-07 at 16:14:12
Report written to "D:\Convert\FFMetrics\reports\ssim_report-6.txt"
Log level: 32
Command line:
ffmpeg -hide_banner -nostdin -i "G:\\\xc0\xed\xe8\xec\xe5\\\xce\xed\xe3\xee\xe8\xed\xe3\xe8\\!_36_\xce\xf1\xe5\xed\xfc_2024\\DreamCast\\\xd6\xe5\xeb\xe8\xf2\xe5\xeb\xfc, \xea\xee\xf2\xee\xf0\xee\xe3\xee \xe8\xf1\xea\xeb\xfe\xf7\xe8\xeb\xe8 \xe8\xe7 \xe3\xf0\xf3\xef\xef\xfb, \xee\xea\xe0\xe7\xe0\xeb\xf1\xff \xf1\xe8\xeb\xfc\xed\xe5\xe9\xf8\xe8\xec!\\[DC] sonochiyushi - 09_Telegram_HEVC.mkv" -i "G:\\\xc0\xed\xe8\xec\xe5\\\xce\xed\xe3\xee\xe8\xed\xe3\xe8\\!_36_\xce\xf1\xe5\xed\xfc_2024\\DreamCast\\\xd6\xe5\xeb\xe8\xf2\xe5\xeb\xfc, \xea\xee\xf2\xee\xf0\xee\xe3\xee \xe8\xf1\xea\xeb\xfe\xf7\xe8\xeb\xe8 \xe8\xe7 \xe3\xf0\xf3\xef\xef\xfb, \xee\xea\xe0\xe7\xe0\xeb\xf1\xff \xf1\xe8\xeb\xfc\xed\xe5\xe9\xf8\xe8\xec!\\[DC] sonochiyushi - 09_Telegram.mp4" -lavfi "[0:v]settb=AVTB,setpts=PTS-STARTPTS,format=pix_fmts=yuv420p10,fps=24000/1001,scale=1920:1080:flags=bicubic[main];[1:v]settb=AVTB,setpts=PTS-STARTPTS,format=pix_fmts=yuv420p,fps=24000/1001,scale=1920:1080:flags=bicubic[ref];[main][ref]ssim=eof_action=endall:stats_file='D\\:/Convert/FFMetrics/logs/ssim_logfile-6.txt'" -f null -
Input #0, matroska,webm, from 'G:\Аниме\Онгоинги\!_36_Осень_2024\DreamCast\Целитель, которого исключили из группы, оказался сильнейшим!\[DC] sonochiyushi - 09_Telegram_HEVC.mkv':
  Metadata:
    COMPATIBLE_BRANDS: isomiso2avc1mp41
    MAJOR_BRAND     : isom
    MINOR_VERSION   : 512
    ENCODER         : Lavf61.7.100
  Duration: 00:23:30.65, start: -0.021000, bitrate: 1060 kb/s
  Stream #0:0: Video: hevc (Main 10), yuv420p10le(tv, bt709, progressive), 1920x1080 [SAR 1:1 DAR 16:9], 23.98 fps, 23.98 tbr, 1k tbn (default)
      Metadata:
        HANDLER_NAME    : VideoHandler
        VENDOR_ID       : [0][0][0][0]
        ENCODER         : Lavc61.19.100 libx265
        BPS             : 862552
        DURATION        : 00:23:30.533708333
        NUMBER_OF_FRAMES: 33819
        NUMBER_OF_BYTES : 152082408
        _STATISTICS_WRITING_APP: mkvpropedit v66.0.0 ('Josie') 64-bit
        _STATISTICS_WRITING_DATE_UTC: 2025-06-05 08:51:42
        _STATISTICS_TAGS: BPS DURATION NUMBER_OF_FRAMES NUMBER_OF_BYTES
  Stream #0:1: Audio: aac (LC), 48000 Hz, stereo, fltp (default)
      Metadata:
        HANDLER_NAME    : SoundHandler
        VENDOR_ID       : [0][0][0][0]
        ENCODER         : Lavc61.19.100 aac
        BPS             : 193605
        DURATION        : 00:23:30.645000000
        NUMBER_OF_FRAMES: 66125
        NUMBER_OF_BYTES : 34138533
        _STATISTICS_WRITING_APP: mkvpropedit v66.0.0 ('Josie') 64-bit
        _STATISTICS_WRITING_DATE_UTC: 2025-06-05 08:51:42
        _STATISTICS_TAGS: BPS DURATION NUMBER_OF_FRAMES NUMBER_OF_BYTES
Input #1, mov,mp4,m4a,3gp,3g2,mj2, from 'G:\Аниме\Онгоинги\!_36_Осень_2024\DreamCast\Целитель, которого исключили из группы, оказался сильнейшим!\[DC] sonochiyushi - 09_Telegram.mp4':
  Metadata:
    major_brand     : isom
    minor_version   : 512
    compatible_brands: isomiso2avc1mp41
    encoder         : Lavf61.1.100
  Duration: 00:23:30.60, start: 0.000000, bitrate: 3568 kb/s
  Stream #1:0[0x1](und): Video: h264 (High) (avc1 / 0x31637661), yuv420p(tv, bt709, progressive), 1920x1080 [SAR 1:1 DAR 16:9], 3420 kb/s, 23.98 fps, 23.98 tbr, 24k tbn (default)
      Metadata:
        handler_name    : VideoHandler
        vendor_id       : [0][0][0][0]
        encoder         : Lavc61.3.100 h264_qsv
  Stream #1:1[0x2](und): Audio: aac (HE-AACv2) (mp4a / 0x6134706D), 48000 Hz, stereo, fltp, 144 kb/s (default)
      Metadata:
        handler_name    : SoundHandler
        vendor_id       : [0][0][0][0]
Stream mapping:
  Stream #0:0 (hevc) -> settb:default
  Stream #1:0 (h264) -> settb:default
  ssim:default -> Stream #0:0 (wrapped_avframe)
  Stream #0:1 -> #0:1 (aac (native) -> pcm_s16le (native))
Output #0, null, to 'pipe:':
  Metadata:
    COMPATIBLE_BRANDS: isomiso2avc1mp41
    MAJOR_BRAND     : isom
    MINOR_VERSION   : 512
    encoder         : Lavf61.7.100
  Stream #0:0: Video: wrapped_avframe, yuv420p10le(tv, bt709, progressive), 1920x1080 [SAR 1:1 DAR 16:9], q=2-31, 200 kb/s, 23.98 fps, 23.98 tbn
      Metadata:
        encoder         : Lavc61.19.100 wrapped_avframe
  Stream #0:1: Audio: pcm_s16le, 48000 Hz, stereo, s16, 1536 kb/s (default)
      Metadata:
        HANDLER_NAME    : SoundHandler
        VENDOR_ID       : [0][0][0][0]
        _STATISTICS_TAGS: BPS DURATION NUMBER_OF_FRAMES NUMBER_OF_BYTES
        BPS             : 193605
        DURATION        : 00:23:30.645000000
        NUMBER_OF_FRAMES: 66125
        NUMBER_OF_BYTES : 34138533
        _STATISTICS_WRITING_APP: mkvpropedit v66.0.0 ('Josie') 64-bit
        _STATISTICS_WRITING_DATE_UTC: 2025-06-05 08:51:42
        encoder         : Lavc61.19.100 pcm_s16le
frame=  159 fps=0.0 q=-0.0 size=N/A time=00:00:06.63 bitrate=N/A speed=  13x    frame=  384 fps=377 q=-0.0 size=N/A time=00:00:16.01 bitrate=N/A speed=15.7x    frame=  636 fps=412 q=-0.0 size=N/A time=00:00:26.52 bitrate=N/A speed=17.2x    frame=  900 fps=438 q=-0.0 size=N/A time=00:00:37.53 bitrate=N/A speed=18.3x    frame= 1176 fps=457 q=-0.0 size=N/A time=00:00:49.04 bitrate=N/A speed=19.1x    frame= 1442 fps=468 q=-0.0 size=N/A time=00:01:00.14 bitrate=N/A speed=19.5x    frame= 1702 fps=472 q=-0.0 size=N/A time=00:01:10.98 bitrate=N/A speed=19.7x    frame= 1940 fps=472 q=-0.0 size=N/A time=00:01:20.91 bitrate=N/A speed=19.7x    frame= 2188 fps=472 q=-0.0 size=N/A time=00:01:31.25 bitrate=N/A speed=19.7x    frame= 2454 fps=477 q=-0.0 size=N/A time=00:01:42.35 bitrate=N/A speed=19.9x    frame= 2706 fps=477 q=-0.0 size=N/A time=00:01:52.86 bitrate=N/A speed=19.9x    frame= 2942 fps=476 q=-0.0 size=N/A time=00:02:02.70 bitrate=N/A speed=19.9x    frame= 3175 fps=474 q=-0.0 size=N/A time=00:02:12.42 bitrate=N/A speed=19.8x    frame= 3390 fps=470 q=-0.0 size=N/A time=00:02:21.39 bitrate=N/A speed=19.6x    frame= 3649 fps=472 q=-0.0 size=N/A time=00:02:32.19 bitrate=N/A speed=19.7x    frame= 3885 fps=471 q=-0.0 size=N/A time=00:02:42.03 bitrate=N/A speed=19.6x    frame= 4097 fps=468 q=-0.0 size=N/A time=00:02:50.87 bitrate=N/A speed=19.5x    frame= 4328 fps=466 q=-0.0 size=N/A time=00:03:00.51 bitrate=N/A speed=19.5x    frame= 4570 fps=467 q=-0.0 size=N/A time=00:03:10.60 bitrate=N/A speed=19.5x    frame= 4790 fps=465 q=-0.0 size=N/A time=00:03:19.78 bitrate=N/A speed=19.4x    frame= 5000 fps=462 q=-0.0 size=N/A time=00:03:28.54 bitrate=N/A speed=19.3x    frame= 5238 fps=462 q=-0.0 size=N/A time=00:03:38.46 bitrate=N/A speed=19.3x    frame= 5457 fps=460 q=-0.0 size=N/A time=00:03:47.60 bitrate=N/A speed=19.2x    frame= 5654 fps=457 q=-0.0 size=N/A time=00:03:55.81 bitrate=N/A speed=19.1x    frame= 5857 fps=455 q=-0.0 size=N/A time=00:04:04.28 bitrate=N/A speed=  19x    frame= 6048 fps=451 q=-0.0 size=N/A time=00:04:12.25 bitrate=N/A speed=18.8x    frame= 6265 fps=450 q=-0.0 size=N/A time=00:04:21.30 bitrate=N/A speed=18.8x    frame= 6450 fps=447 q=-0.0 size=N/A time=00:04:29.01 bitrate=N/A speed=18.6x    frame= 6640 fps=444 q=-0.0 size=N/A time=00:04:36.94 bitrate=N/A speed=18.5x    frame= 6898 fps=446 q=-0.0 size=N/A time=00:04:47.70 bitrate=N/A speed=18.6x    frame= 7181 fps=449 q=-0.0 size=N/A time=00:04:59.50 bitrate=N/A speed=18.7x    frame= 7419 fps=450 q=-0.0 size=N/A time=00:05:09.43 bitrate=N/A speed=18.8x    frame= 7682 fps=452 q=-0.0 size=N/A time=00:05:20.40 bitrate=N/A speed=18.8x    frame= 7951 fps=454 q=-0.0 size=N/A time=00:05:31.62 bitrate=N/A speed=18.9x    frame= 8213 fps=455 q=-0.0 size=N/A time=00:05:42.55 bitrate=N/A speed=  19x    frame= 8487 fps=457 q=-0.0 size=N/A time=00:05:53.97 bitrate=N/A speed=19.1x    frame= 8765 fps=460 q=-0.0 size=N/A time=00:06:05.57 bitrate=N/A speed=19.2x    frame= 9034 fps=461 q=-0.0 size=N/A time=00:06:16.79 bitrate=N/A speed=19.2x    frame= 9288 fps=462 q=-0.0 size=N/A time=00:06:27.38 bitrate=N/A speed=19.3x    frame= 9513 fps=462 q=-0.0 size=N/A time=00:06:36.77 bitrate=N/A speed=19.2x    frame= 9745 fps=461 q=-0.0 size=N/A time=00:06:46.44 bitrate=N/A speed=19.2x    frame= 9973 fps=461 q=-0.0 size=N/A time=00:06:55.95 bitrate=N/A speed=19.2x    frame=10220 fps=461 q=-0.0 size=N/A time=00:07:06.25 bitrate=N/A speed=19.2x    frame=10499 fps=463 q=-0.0 size=N/A time=00:07:17.89 bitrate=N/A speed=19.3x    frame=10757 fps=464 q=-0.0 size=N/A time=00:07:28.65 bitrate=N/A speed=19.3x    frame=11035 fps=465 q=-0.0 size=N/A time=00:07:40.25 bitrate=N/A speed=19.4x    frame=11309 fps=467 q=-0.0 size=N/A time=00:07:51.67 bitrate=N/A speed=19.5x    frame=11534 fps=466 q=-0.0 size=N/A time=00:08:01.06 bitrate=N/A speed=19.4x    frame=11756 fps=465 q=-0.0 size=N/A time=00:08:10.32 bitrate=N/A speed=19.4x    frame=12002 fps=466 q=-0.0 size=N/A time=00:08:20.58 bitrate=N/A speed=19.4x    frame=12245 fps=466 q=-0.0 size=N/A time=00:08:30.71 bitrate=N/A speed=19.4x    frame=12468 fps=465 q=-0.0 size=N/A time=00:08:40.01 bitrate=N/A speed=19.4x    frame=12727 fps=466 q=-0.0 size=N/A time=00:08:50.82 bitrate=N/A speed=19.4x    frame=12963 fps=466 q=-0.0 size=N/A time=00:09:00.66 bitrate=N/A speed=19.4x    frame=13178 fps=465 q=-0.0 size=N/A time=00:09:09.63 bitrate=N/A speed=19.4x    frame=13450 fps=466 q=-0.0 size=N/A time=00:09:20.97 bitrate=N/A speed=19.4x    frame=13722 fps=467 q=-0.0 size=N/A time=00:09:32.32 bitrate=N/A speed=19.5x    frame=13969 fps=467 q=-0.0 size=N/A time=00:09:42.62 bitrate=N/A speed=19.5x    frame=14205 fps=467 q=-0.0 size=N/A time=00:09:52.46 bitrate=N/A speed=19.5x    frame=14480 fps=468 q=-0.0 size=N/A time=00:10:03.93 bitrate=N/A speed=19.5x    frame=14755 fps=469 q=-0.0 size=N/A time=00:10:15.40 bitrate=N/A speed=19.6x    frame=15039 fps=471 q=-0.0 size=N/A time=00:10:27.25 bitrate=N/A speed=19.6x    frame=15323 fps=472 q=-0.0 size=N/A time=00:10:39.09 bitrate=N/A speed=19.7x    frame=15595 fps=473 q=-0.0 size=N/A time=00:10:50.44 bitrate=N/A speed=19.7x    frame=15834 fps=473 q=-0.0 size=N/A time=00:11:00.40 bitrate=N/A speed=19.7x    frame=16125 fps=474 q=-0.0 size=N/A time=00:11:12.54 bitrate=N/A speed=19.8x    frame=16384 fps=474 q=-0.0 size=N/A time=00:11:23.34 bitrate=N/A speed=19.8x    frame=16596 fps=473 q=-0.0 size=N/A time=00:11:32.19 bitrate=N/A speed=19.7x    frame=16869 fps=474 q=-0.0 size=N/A time=00:11:43.57 bitrate=N/A speed=19.8x    frame=17061 fps=473 q=-0.0 size=N/A time=00:11:51.58 bitrate=N/A speed=19.7x    frame=17281 fps=472 q=-0.0 size=N/A time=00:12:00.76 bitrate=N/A speed=19.7x    frame=17519 fps=472 q=-0.0 size=N/A time=00:12:10.68 bitrate=N/A speed=19.7x    frame=17784 fps=472 q=-0.0 size=N/A time=00:12:21.74 bitrate=N/A speed=19.7x    frame=18060 fps=473 q=-0.0 size=N/A time=00:12:33.25 bitrate=N/A speed=19.7x    frame=18344 fps=474 q=-0.0 size=N/A time=00:12:45.09 bitrate=N/A speed=19.8x    frame=18631 fps=475 q=-0.0 size=N/A time=00:12:57.06 bitrate=N/A speed=19.8x    frame=18913 fps=476 q=-0.0 size=N/A time=00:13:08.82 bitrate=N/A speed=19.9x    frame=19176 fps=477 q=-0.0 size=N/A time=00:13:19.79 bitrate=N/A speed=19.9x    frame=19453 fps=477 q=-0.0 size=N/A time=00:13:31.35 bitrate=N/A speed=19.9x    frame=19696 fps=477 q=-0.0 size=N/A time=00:13:41.48 bitrate=N/A speed=19.9x    frame=19960 fps=478 q=-0.0 size=N/A time=00:13:52.49 bitrate=N/A speed=19.9x    frame=20234 fps=478 q=-0.0 size=N/A time=00:14:03.92 bitrate=N/A speed=  20x    frame=20510 fps=479 q=-0.0 size=N/A time=00:14:15.43 bitrate=N/A speed=  20x    frame=20800 fps=480 q=-0.0 size=N/A time=00:14:27.53 bitrate=N/A speed=  20x    frame=21084 fps=481 q=-0.0 size=N/A time=00:14:39.37 bitrate=N/A speed=20.1x    frame=21377 fps=482 q=-0.0 size=N/A time=00:14:51.59 bitrate=N/A speed=20.1x    frame=21639 fps=482 q=-0.0 size=N/A time=00:15:02.52 bitrate=N/A speed=20.1x    frame=21895 fps=482 q=-0.0 size=N/A time=00:15:13.20 bitrate=N/A speed=20.1x    frame=22108 fps=482 q=-0.0 size=N/A time=00:15:22.08 bitrate=N/A speed=20.1x    frame=22310 fps=481 q=-0.0 size=N/A time=00:15:30.51 bitrate=N/A speed=  20x    frame=22536 fps=480 q=-0.0 size=N/A time=00:15:39.93 bitrate=N/A speed=  20x    frame=22775 fps=480 q=-0.0 size=N/A time=00:15:49.90 bitrate=N/A speed=  20x    frame=23059 fps=481 q=-0.0 size=N/A time=00:16:01.75 bitrate=N/A speed=20.1x    frame=23324 fps=481 q=-0.0 size=N/A time=00:16:12.80 bitrate=N/A speed=20.1x    frame=23574 fps=481 q=-0.0 size=N/A time=00:16:23.23 bitrate=N/A speed=20.1x    frame=23805 fps=481 q=-0.0 size=N/A time=00:16:32.86 bitrate=N/A speed=20.1x    frame=24065 fps=481 q=-0.0 size=N/A time=00:16:43.71 bitrate=N/A speed=20.1x    frame=24306 fps=481 q=-0.0 size=N/A time=00:16:53.76 bitrate=N/A speed=20.1x    frame=24536 fps=481 q=-0.0 size=N/A time=00:17:03.35 bitrate=N/A speed=  20x    frame=24801 fps=481 q=-0.0 size=N/A time=00:17:14.40 bitrate=N/A speed=20.1x    frame=25053 fps=481 q=-0.0 size=N/A time=00:17:24.91 bitrate=N/A speed=20.1x    frame=25305 fps=481 q=-0.0 size=N/A time=00:17:35.42 bitrate=N/A speed=20.1x    frame=25498 fps=480 q=-0.0 size=N/A time=00:17:43.47 bitrate=N/A speed=  20x    frame=25742 fps=480 q=-0.0 size=N/A time=00:17:53.65 bitrate=N/A speed=  20x    frame=25919 fps=479 q=-0.0 size=N/A time=00:18:01.03 bitrate=N/A speed=  20x    frame=26134 fps=478 q=-0.0 size=N/A time=00:18:10.00 bitrate=N/A speed=19.9x    frame=26411 fps=479 q=-0.0 size=N/A time=00:18:21.55 bitrate=N/A speed=  20x    frame=26684 fps=479 q=-0.0 size=N/A time=00:18:32.94 bitrate=N/A speed=  20x    frame=26945 fps=479 q=-0.0 size=N/A time=00:18:43.83 bitrate=N/A speed=  20x    frame=27208 fps=480 q=-0.0 size=N/A time=00:18:54.80 bitrate=N/A speed=  20x    frame=27470 fps=480 q=-0.0 size=N/A time=00:19:05.72 bitrate=N/A speed=  20x    frame=27691 fps=479 q=-0.0 size=N/A time=00:19:14.94 bitrate=N/A speed=  20x    frame=27911 fps=479 q=-0.0 size=N/A time=00:19:24.12 bitrate=N/A speed=  20x    frame=28176 fps=479 q=-0.0 size=N/A time=00:19:35.17 bitrate=N/A speed=  20x    frame=28463 fps=480 q=-0.0 size=N/A time=00:19:47.14 bitrate=N/A speed=  20x    frame=28708 fps=480 q=-0.0 size=N/A time=00:19:57.36 bitrate=N/A speed=  20x    frame=28981 fps=480 q=-0.0 size=N/A time=00:20:08.74 bitrate=N/A speed=  20x    frame=29255 fps=481 q=-0.0 size=N/A time=00:20:20.17 bitrate=N/A speed=  20x    frame=29484 fps=480 q=-0.0 size=N/A time=00:20:29.72 bitrate=N/A speed=  20x    frame=29725 fps=480 q=-0.0 size=N/A time=00:20:39.78 bitrate=N/A speed=  20x    frame=29982 fps=480 q=-0.0 size=N/A time=00:20:50.49 bitrate=N/A speed=  20x    frame=30215 fps=480 q=-0.0 size=N/A time=00:21:00.21 bitrate=N/A speed=  20x    frame=30441 fps=480 q=-0.0 size=N/A time=00:21:09.64 bitrate=N/A speed=  20x    frame=30706 fps=480 q=-0.0 size=N/A time=00:21:20.69 bitrate=N/A speed=  20x    frame=30978 fps=480 q=-0.0 size=N/A time=00:21:32.04 bitrate=N/A speed=  20x    frame=31265 fps=481 q=-0.0 size=N/A time=00:21:44.01 bitrate=N/A speed=20.1x    frame=31523 fps=481 q=-0.0 size=N/A time=00:21:54.77 bitrate=N/A speed=20.1x    frame=31758 fps=481 q=-0.0 size=N/A time=00:22:04.57 bitrate=N/A speed=20.1x    frame=31990 fps=481 q=-0.0 size=N/A time=00:22:14.24 bitrate=N/A speed=20.1x    frame=32238 fps=481 q=-0.0 size=N/A time=00:22:24.59 bitrate=N/A speed=20.1x    frame=32495 fps=481 q=-0.0 size=N/A time=00:22:35.31 bitrate=N/A speed=20.1x    frame=32703 fps=480 q=-0.0 size=N/A time=00:22:43.98 bitrate=N/A speed=  20x    frame=32934 fps=480 q=-0.0 size=N/A time=00:22:53.62 bitrate=N/A speed=  20x    frame=33176 fps=480 q=-0.0 size=N/A time=00:23:03.71 bitrate=N/A speed=  20x    frame=33367 fps=479 q=-0.0 size=N/A time=00:23:11.68 bitrate=N/A speed=  20x    frame=33628 fps=479 q=-0.0 size=N/A time=00:23:22.56 bitrate=N/A speed=  20x    [Parsed_ssim_10 @ 000001e8224fdb00] SSIM Y:0.995274 (23.255352) U:0.994648 (22.715019) V:0.994628 (22.698887) All:0.995062 (23.064751)
[out#0/null @ 000001e822b9ba00] video:14532KiB audio:264500KiB subtitle:0KiB other streams:0KiB global headers:0KiB muxing overhead: unknown
frame=33819 fps=480 q=-0.0 Lsize=N/A time=00:23:30.53 bitrate=N/A speed=  20x    
